<mxfile host="65bd71144e">
    <diagram id="3z-aaaEbEagNqPvxhsqn" name="第 1 页">
        <mxGraphModel dx="1002" dy="576" grid="0" gridSize="10" guides="1" tooltips="1" connect="1" arrows="1" fold="1" page="0" pageScale="1" pageWidth="827" pageHeight="1169" math="0" shadow="0">
            <root>
                <mxCell id="0"/>
                <mxCell id="1" parent="0"/>
                <mxCell id="4" value="" style="edgeStyle=none;html=1;fontSize=18;fontColor=#FF8000;" edge="1" parent="1" source="2" target="3">
                    <mxGeometry relative="1" as="geometry"/>
                </mxCell>
                <mxCell id="2" value="&lt;div style=&quot;text-align: left;&quot;&gt;&lt;span style=&quot;font-size: 18px; color: rgb(255, 128, 0); background-color: initial;&quot;&gt;load...&lt;/span&gt;&lt;/div&gt;&lt;font color=&quot;#ff8000&quot; style=&quot;font-size: 18px;&quot;&gt;&lt;div style=&quot;text-align: left;&quot;&gt;&lt;span style=&quot;background-color: initial;&quot;&gt;add...&lt;/span&gt;&lt;/div&gt;&lt;div style=&quot;text-align: left;&quot;&gt;&lt;span style=&quot;background-color: initial;&quot;&gt;store...&lt;/span&gt;&lt;/div&gt;&lt;/font&gt;" style="whiteSpace=wrap;html=1;aspect=fixed;fillColor=none;" vertex="1" parent="1">
                    <mxGeometry x="123" y="137" width="106" height="106" as="geometry"/>
                </mxCell>
                <mxCell id="6" value="" style="edgeStyle=none;html=1;fontSize=18;fontColor=#FF8000;" edge="1" parent="1" source="3" target="5">
                    <mxGeometry relative="1" as="geometry"/>
                </mxCell>
                <mxCell id="3" value="&lt;div style=&quot;text-align: left;&quot;&gt;&lt;span style=&quot;font-size: 18px; color: rgb(255, 128, 0); background-color: initial;&quot;&gt;load...&lt;/span&gt;&lt;/div&gt;&lt;font color=&quot;#ff8000&quot; style=&quot;font-size: 18px;&quot;&gt;&lt;div style=&quot;text-align: left;&quot;&gt;&lt;span style=&quot;background-color: initial;&quot;&gt;add...&lt;/span&gt;&lt;/div&gt;&lt;div style=&quot;text-align: left;&quot;&gt;&lt;span style=&quot;background-color: initial;&quot;&gt;store...&lt;/span&gt;&lt;/div&gt;&lt;/font&gt;" style="whiteSpace=wrap;html=1;aspect=fixed;fillColor=none;" vertex="1" parent="1">
                    <mxGeometry x="309" y="137" width="106" height="106" as="geometry"/>
                </mxCell>
                <mxCell id="10" style="edgeStyle=none;html=1;entryX=0.03;entryY=0.724;entryDx=0;entryDy=0;entryPerimeter=0;fontSize=18;fontColor=#FF8000;" edge="1" parent="1" source="5" target="7">
                    <mxGeometry relative="1" as="geometry"/>
                </mxCell>
                <mxCell id="5" value="&lt;div style=&quot;text-align: left;&quot;&gt;&lt;span style=&quot;font-size: 18px; color: rgb(255, 128, 0); background-color: initial;&quot;&gt;load...&lt;/span&gt;&lt;/div&gt;&lt;font color=&quot;#ff8000&quot; style=&quot;font-size: 18px;&quot;&gt;&lt;div style=&quot;text-align: left;&quot;&gt;&lt;span style=&quot;background-color: initial;&quot;&gt;add...&lt;/span&gt;&lt;/div&gt;&lt;div style=&quot;text-align: left;&quot;&gt;&lt;span style=&quot;background-color: initial;&quot;&gt;store...&lt;/span&gt;&lt;/div&gt;&lt;/font&gt;" style="whiteSpace=wrap;html=1;aspect=fixed;fillColor=none;" vertex="1" parent="1">
                    <mxGeometry x="495" y="137" width="106" height="106" as="geometry"/>
                </mxCell>
                <mxCell id="7" value="..." style="text;html=1;align=center;verticalAlign=middle;resizable=0;points=[];autosize=1;strokeColor=none;fillColor=none;fontSize=18;fontColor=#FF8000;" vertex="1" parent="1">
                    <mxGeometry x="679" y="167" width="33" height="34" as="geometry"/>
                </mxCell>
            </root>
        </mxGraphModel>
    </diagram>
</mxfile>